<svg width="98" height="32" viewBox="0 0 98 32" fill="none" xmlns="http://www.w3.org/2000/svg">
<g id="Logo">
<path d="M65.3599 0C65.0958 0 64.8814 0.216179 64.8814 0.482848V8.83644L68.2381 5.4565V0.482848C68.2381 0.216178 68.0219 0 67.7578 0H65.3599Z" fill="#2D62EA"/>
<path d="M80.1567 8.82346H97.7342C97.8813 8.82346 98 8.9432 98 9.09089V12.1147C98 12.2624 97.8813 12.3821 97.7342 12.3821H90.8878V31.7259C90.8878 31.8736 90.7691 31.9933 90.622 31.9933H87.2405C87.0934 31.9933 86.9729 31.8736 86.9729 31.7259V12.3821H80.1602C80.0114 12.3821 79.8926 12.2626 79.8926 12.115L79.8891 9.09115C79.8891 8.94335 80.0078 8.82346 80.1567 8.82346Z" fill="#2D62EA"/>
<path fill-rule="evenodd" clip-rule="evenodd" d="M0 9.09569C0 8.948 0.120515 8.82827 0.267614 8.82827H9.86983C11.456 8.82827 12.7533 9.06357 13.7547 9.52703C14.7578 9.99406 15.5287 10.5787 16.0728 11.2775C16.6169 11.9763 16.9855 12.7427 17.1858 13.5699C17.3825 14.397 17.4835 15.1599 17.4835 15.8622C17.4835 16.5645 17.3861 17.3203 17.1858 18.1403C16.9855 18.9567 16.6169 19.7161 16.0728 20.4184C15.5287 21.1172 14.7578 21.6983 13.7547 22.1546C12.7498 22.6109 11.456 22.8391 9.86983 22.8391H3.91497V31.7297C3.91497 31.8774 3.79622 31.9971 3.64912 31.9971H0.267614C0.120515 31.9971 0 31.8774 0 31.7297V9.09569ZM3.91497 19.5913H9.65184C10.0914 19.5913 10.5398 19.5271 11.0005 19.3988C11.4596 19.2704 11.8796 19.0637 12.2695 18.7785C12.6559 18.4933 12.9678 18.1082 13.2106 17.6341C13.4481 17.1563 13.5721 16.5574 13.5721 15.8337C13.5721 15.11 13.4658 14.4754 13.2602 13.987C13.0493 13.4986 12.7675 13.11 12.413 12.8247C12.0586 12.5395 11.6527 12.3435 11.1919 12.2365C10.7329 12.1296 10.242 12.0761 9.71918 12.0761H3.91497V19.5913Z" fill="#2D62EA"/>
<path fill-rule="evenodd" clip-rule="evenodd" d="M24.9537 32C23.683 32 22.5505 31.7989 21.5562 31.3967C20.5602 30.9945 19.7202 30.4406 19.0361 29.7318C18.3466 29.0263 17.8274 28.1823 17.4694 27.1999C17.1114 26.2175 16.9324 25.1394 16.9324 23.9625C16.9324 22.7855 17.1114 21.7338 17.4694 20.7547C17.8274 19.7723 18.3502 18.9283 19.0361 18.2228C19.7202 17.5173 20.5602 16.9634 21.5562 16.5579C22.5505 16.1557 23.683 15.9546 24.9537 15.9546C26.2227 15.9546 27.3551 16.1557 28.3512 16.5579C29.3454 16.9601 30.1855 17.514 30.8696 18.2228C31.5554 18.9283 32.0783 19.7723 32.4363 20.7547C32.7943 21.7371 32.9733 22.8053 32.9733 23.9625C32.9733 25.1196 32.7943 26.2208 32.4363 27.1999C32.0783 28.1823 31.5554 29.0263 30.8696 29.7318C30.1819 30.4373 29.3419 30.9945 28.3512 31.3967C27.3587 31.7989 26.2227 32 24.9537 32ZM24.9537 29.3494C25.7317 29.3494 26.4087 29.1911 26.9812 28.878C27.5554 28.5648 28.0268 28.1527 28.3955 27.6417C28.7641 27.1307 29.0353 26.557 29.2107 25.9207C29.3826 25.2845 29.473 24.6317 29.473 23.9625C29.473 23.2932 29.3862 22.6668 29.2107 22.0207C29.0353 21.3745 28.7677 20.7976 28.3955 20.2997C28.0268 19.7986 27.5554 19.3931 26.9812 19.0766C26.4052 18.7634 25.7317 18.6052 24.9537 18.6052C24.1757 18.6052 23.4969 18.7634 22.9262 19.0766C22.3502 19.3898 21.8788 19.7986 21.5102 20.2997C21.1415 20.8009 20.8704 21.3745 20.6949 22.0207C20.5195 22.6668 20.4326 23.3163 20.4326 23.9625C20.4326 24.6086 20.5195 25.2812 20.6949 25.9207C20.8668 26.5603 21.1398 27.134 21.5102 27.6417C21.8788 28.1527 22.3502 28.5648 22.9262 28.878C23.5004 29.1911 24.1757 29.3494 24.9537 29.3494Z" fill="#2D62EA"/>
<path d="M35.0238 15.9546C34.8767 15.9546 34.7562 16.0743 34.7562 16.222V31.7326C34.7562 31.8803 34.8767 32 35.0238 32H38.0544C38.2015 32 38.3202 31.8803 38.3202 31.7326V16.222C38.3202 16.0743 38.2015 15.9546 38.0544 15.9546H35.0238Z" fill="#2D62EA"/>
<path d="M44.3761 17.9579V15.8047C44.3761 15.657 44.2556 15.5372 44.1085 15.5372H41.2675C41.1204 15.5372 40.9999 15.657 40.9999 15.8047V31.7299C40.9999 31.8776 41.1204 31.9973 41.2675 31.9973H44.3052C44.4523 31.9973 44.5711 31.8776 44.5711 31.7299V22.286C44.5711 21.6942 44.6632 21.1309 44.8529 20.5997C45.039 20.072 45.3013 19.6086 45.6344 19.2164C45.9676 18.8243 46.3753 18.5141 46.8555 18.2931C47.3323 18.0685 47.8764 17.9579 48.4843 17.9579C49.5512 17.9579 50.3328 18.2503 50.8343 18.835C51.3359 19.4161 51.607 20.3572 51.6496 21.6514V31.7299C51.6496 31.8776 51.7683 31.9973 51.9154 31.9973H54.9531C55.1002 31.9973 55.2207 31.8776 55.2207 31.7299V20.6959C55.2207 18.8278 54.7085 17.4267 53.6841 16.4927C52.6598 15.5586 51.2597 15.0916 49.4838 15.0916C48.4169 15.0916 47.4457 15.3519 46.5684 15.8724C45.6912 16.3929 44.9822 17.1094 44.4382 18.0221L44.3761 17.9579Z" fill="#2D62EA"/>
<path d="M38.3185 10.6075C38.3185 11.5921 37.5209 12.3903 36.5373 12.3903C35.5519 12.3903 34.7544 11.5921 34.7544 10.6075C34.7544 9.62286 35.5519 8.82467 36.5373 8.82467C37.5209 8.82467 38.3185 9.62286 38.3185 10.6075Z" fill="#2D62EA"/>
<path d="M76.5324 12.2165C76.7964 12.2165 77.0127 12.0004 77.0127 11.7337V9.31946C77.0127 9.05279 76.7964 8.83662 76.5324 8.83662L71.593 8.83661L68.2363 12.2165H76.5324Z" fill="#2D62EA"/>
<path d="M67.7578 21.0532C68.0219 21.0532 68.2381 20.8371 68.2381 20.5704L68.2363 12.2165L64.8814 15.5967V20.5704C64.8814 20.8371 65.0958 21.0532 65.3599 21.0532H67.7578Z" fill="#2D62EA"/>
<path d="M56.5854 8.83669C56.3195 8.83669 56.1051 9.05286 56.1051 9.31953V11.7338C56.1051 12.0004 56.3195 12.2166 56.5854 12.2166H61.5247L64.8814 8.83644L56.5854 8.83669Z" fill="#2D62EA"/>
<path d="M65.5318 9.07828C65.305 9.07828 65.1207 9.26357 65.1207 9.49215V11.5615C65.1207 11.7901 65.305 11.9754 65.5318 11.9754H67.5877C67.8145 11.9754 67.9971 11.7901 67.9971 11.5615V9.49215C67.9971 9.26357 67.8145 9.07828 67.5877 9.07828H65.5318Z" fill="#2D62EA"/>
</g>
</svg>
